<mxfile host="app.diagrams.net" modified="2022-05-06T02:55:54.309Z" agent="5.0 (Windows NT 10.0; Win64; x64) AppleWebKit/537.36 (KHTML, like Gecko) Chrome/101.0.4951.54 Safari/537.36" etag="34wcnZy1YUDaJwFFJEnb" version="18.0.1" type="github">
  <diagram id="R2lEEEUBdFMjLlhIrx00" name="Page-1">
    <mxGraphModel dx="484" dy="332" grid="1" gridSize="10" guides="1" tooltips="1" connect="1" arrows="1" fold="1" page="1" pageScale="1" pageWidth="850" pageHeight="1100" math="0" shadow="0" extFonts="Permanent Marker^https://fonts.googleapis.com/css?family=Permanent+Marker">
      <root>
        <mxCell id="0" />
        <mxCell id="1" parent="0" />
        <mxCell id="C-vyLk0tnHw3VtMMgP7b-12" value="" style="edgeStyle=entityRelationEdgeStyle;endArrow=ERzeroToMany;startArrow=ERone;endFill=1;startFill=0;" parent="1" edge="1">
          <mxGeometry width="100" height="100" relative="1" as="geometry">
            <mxPoint x="700" y="165" as="sourcePoint" />
            <mxPoint x="460" y="205" as="targetPoint" />
          </mxGeometry>
        </mxCell>
        <mxCell id="ThO8s_hxeD24pVAJYVmt-1" value="" style="endArrow=none;dashed=1;html=1;dashPattern=1 3;strokeWidth=2;rounded=0;targetPerimeterSpacing=0;startArrow=none;" edge="1" parent="1" source="ThO8s_hxeD24pVAJYVmt-28">
          <mxGeometry width="50" height="50" relative="1" as="geometry">
            <mxPoint x="400" y="140" as="sourcePoint" />
            <mxPoint x="395" y="420" as="targetPoint" />
          </mxGeometry>
        </mxCell>
        <mxCell id="ThO8s_hxeD24pVAJYVmt-5" value="用户" style="shape=umlActor;verticalLabelPosition=bottom;verticalAlign=top;html=1;outlineConnect=0;" vertex="1" parent="1">
          <mxGeometry x="220" y="250" width="30" height="60" as="geometry" />
        </mxCell>
        <mxCell id="ThO8s_hxeD24pVAJYVmt-7" value="Vue" style="rounded=1;whiteSpace=wrap;html=1;" vertex="1" parent="1">
          <mxGeometry x="310" y="200" width="65" height="160" as="geometry" />
        </mxCell>
        <mxCell id="ThO8s_hxeD24pVAJYVmt-9" value="SpringBoot" style="rounded=1;whiteSpace=wrap;html=1;" vertex="1" parent="1">
          <mxGeometry x="425" y="200" width="65" height="160" as="geometry" />
        </mxCell>
        <mxCell id="ThO8s_hxeD24pVAJYVmt-10" value="Mybatis" style="rounded=1;whiteSpace=wrap;html=1;" vertex="1" parent="1">
          <mxGeometry x="530" y="200" width="70" height="60" as="geometry" />
        </mxCell>
        <mxCell id="ThO8s_hxeD24pVAJYVmt-11" value="MySql" style="shape=cylinder3;whiteSpace=wrap;html=1;boundedLbl=1;backgroundOutline=1;size=15;" vertex="1" parent="1">
          <mxGeometry x="530" y="290" width="70" height="70" as="geometry" />
        </mxCell>
        <mxCell id="ThO8s_hxeD24pVAJYVmt-13" value="" style="shape=flexArrow;endArrow=classic;startArrow=classic;html=1;rounded=0;targetPerimeterSpacing=0;" edge="1" parent="1">
          <mxGeometry width="100" height="100" relative="1" as="geometry">
            <mxPoint x="260" y="280" as="sourcePoint" />
            <mxPoint x="310" y="279.28999999999996" as="targetPoint" />
          </mxGeometry>
        </mxCell>
        <mxCell id="ThO8s_hxeD24pVAJYVmt-14" value="" style="shape=flexArrow;endArrow=classic;html=1;rounded=0;targetPerimeterSpacing=0;" edge="1" parent="1">
          <mxGeometry width="50" height="50" relative="1" as="geometry">
            <mxPoint x="380" y="229.66" as="sourcePoint" />
            <mxPoint x="420" y="229.66" as="targetPoint" />
          </mxGeometry>
        </mxCell>
        <mxCell id="ThO8s_hxeD24pVAJYVmt-15" value="" style="shape=flexArrow;endArrow=classic;html=1;rounded=0;targetPerimeterSpacing=0;" edge="1" parent="1">
          <mxGeometry width="50" height="50" relative="1" as="geometry">
            <mxPoint x="420" y="324.66" as="sourcePoint" />
            <mxPoint x="380" y="324.66" as="targetPoint" />
          </mxGeometry>
        </mxCell>
        <mxCell id="ThO8s_hxeD24pVAJYVmt-23" value="" style="endArrow=classic;startArrow=classic;html=1;rounded=0;targetPerimeterSpacing=0;exitX=0.5;exitY=0;exitDx=0;exitDy=0;exitPerimeter=0;entryX=0.5;entryY=1;entryDx=0;entryDy=0;" edge="1" parent="1" source="ThO8s_hxeD24pVAJYVmt-11" target="ThO8s_hxeD24pVAJYVmt-10">
          <mxGeometry width="50" height="50" relative="1" as="geometry">
            <mxPoint x="500" y="310" as="sourcePoint" />
            <mxPoint x="550" y="260" as="targetPoint" />
          </mxGeometry>
        </mxCell>
        <mxCell id="ThO8s_hxeD24pVAJYVmt-24" value="" style="endArrow=classic;startArrow=classic;html=1;rounded=0;targetPerimeterSpacing=0;entryX=1.014;entryY=0.184;entryDx=0;entryDy=0;entryPerimeter=0;exitX=0;exitY=0.5;exitDx=0;exitDy=0;" edge="1" parent="1" source="ThO8s_hxeD24pVAJYVmt-10" target="ThO8s_hxeD24pVAJYVmt-9">
          <mxGeometry width="50" height="50" relative="1" as="geometry">
            <mxPoint x="570" y="230" as="sourcePoint" />
            <mxPoint x="620" y="180" as="targetPoint" />
          </mxGeometry>
        </mxCell>
        <mxCell id="ThO8s_hxeD24pVAJYVmt-25" value="前端" style="text;html=1;align=center;verticalAlign=middle;resizable=0;points=[];autosize=1;strokeColor=none;fillColor=none;" vertex="1" parent="1">
          <mxGeometry x="322.5" y="380" width="40" height="20" as="geometry" />
        </mxCell>
        <mxCell id="ThO8s_hxeD24pVAJYVmt-26" value="后端" style="text;html=1;align=center;verticalAlign=middle;resizable=0;points=[];autosize=1;strokeColor=none;fillColor=none;" vertex="1" parent="1">
          <mxGeometry x="490" y="380" width="40" height="20" as="geometry" />
        </mxCell>
        <mxCell id="ThO8s_hxeD24pVAJYVmt-27" value="①" style="text;html=1;align=center;verticalAlign=middle;resizable=0;points=[];autosize=1;strokeColor=none;fillColor=none;" vertex="1" parent="1">
          <mxGeometry x="270" y="290" width="30" height="20" as="geometry" />
        </mxCell>
        <mxCell id="ThO8s_hxeD24pVAJYVmt-28" value="②" style="text;html=1;align=center;verticalAlign=middle;resizable=0;points=[];autosize=1;strokeColor=none;fillColor=none;" vertex="1" parent="1">
          <mxGeometry x="380" y="270" width="30" height="20" as="geometry" />
        </mxCell>
        <mxCell id="ThO8s_hxeD24pVAJYVmt-29" value="" style="endArrow=none;dashed=1;html=1;dashPattern=1 3;strokeWidth=2;rounded=0;" edge="1" parent="1" target="ThO8s_hxeD24pVAJYVmt-28">
          <mxGeometry width="50" height="50" relative="1" as="geometry">
            <mxPoint x="395" y="140" as="sourcePoint" />
            <mxPoint x="400" y="419.9999999999999" as="targetPoint" />
          </mxGeometry>
        </mxCell>
        <mxCell id="ThO8s_hxeD24pVAJYVmt-31" value="③" style="text;html=1;align=center;verticalAlign=middle;resizable=0;points=[];autosize=1;strokeColor=none;fillColor=none;" vertex="1" parent="1">
          <mxGeometry x="495" y="230" width="30" height="20" as="geometry" />
        </mxCell>
        <mxCell id="ThO8s_hxeD24pVAJYVmt-32" value="③" style="text;html=1;align=center;verticalAlign=middle;resizable=0;points=[];autosize=1;strokeColor=none;fillColor=none;" vertex="1" parent="1">
          <mxGeometry x="540" y="260" width="30" height="20" as="geometry" />
        </mxCell>
      </root>
    </mxGraphModel>
  </diagram>
</mxfile>
